<mxfile host="app.diagrams.net" agent="Mozilla/5.0 (Windows NT 10.0; Win64; x64; rv:135.0) Gecko/20100101 Firefox/135.0" version="27.0.9">
  <diagram name="Seite-1" id="J1c4-8O7wE8rOyxB_w7t">
    <mxGraphModel dx="1008" dy="981" grid="0" gridSize="10" guides="1" tooltips="1" connect="1" arrows="1" fold="1" page="0" pageScale="1" pageWidth="827" pageHeight="1169" background="#ffffff" math="0" shadow="0">
      <root>
        <mxCell id="0" />
        <mxCell id="1" parent="0" />
        <mxCell id="Yi0r99OjTZonBeMrS5AY-9" style="edgeStyle=orthogonalEdgeStyle;rounded=0;orthogonalLoop=1;jettySize=auto;html=1;exitX=0.5;exitY=1;exitDx=0;exitDy=0;entryX=0.5;entryY=0;entryDx=0;entryDy=0;curved=1;endArrow=none;startFill=0;" parent="1" source="Yi0r99OjTZonBeMrS5AY-1" target="Yi0r99OjTZonBeMrS5AY-6" edge="1">
          <mxGeometry relative="1" as="geometry" />
        </mxCell>
        <mxCell id="Yi0r99OjTZonBeMrS5AY-10" style="edgeStyle=orthogonalEdgeStyle;rounded=0;orthogonalLoop=1;jettySize=auto;html=1;exitX=0.5;exitY=1;exitDx=0;exitDy=0;entryX=0.5;entryY=0;entryDx=0;entryDy=0;endArrow=none;startFill=0;curved=1;" parent="1" source="Yi0r99OjTZonBeMrS5AY-1" target="Yi0r99OjTZonBeMrS5AY-7" edge="1">
          <mxGeometry relative="1" as="geometry" />
        </mxCell>
        <mxCell id="Yi0r99OjTZonBeMrS5AY-1" value="T1" style="ellipse;whiteSpace=wrap;html=1;" parent="1" vertex="1">
          <mxGeometry x="373" y="-151" width="54" height="30" as="geometry" />
        </mxCell>
        <mxCell id="Yi0r99OjTZonBeMrS5AY-6" value="T1" style="ellipse;whiteSpace=wrap;html=1;" parent="1" vertex="1">
          <mxGeometry x="334" y="-90" width="54" height="30" as="geometry" />
        </mxCell>
        <mxCell id="Yi0r99OjTZonBeMrS5AY-20" style="edgeStyle=orthogonalEdgeStyle;rounded=0;orthogonalLoop=1;jettySize=auto;html=1;exitX=0;exitY=0.5;exitDx=0;exitDy=0;curved=1;endArrow=none;startFill=0;entryX=0.5;entryY=0;entryDx=0;entryDy=0;" parent="1" source="Yi0r99OjTZonBeMrS5AY-7" target="Yi0r99OjTZonBeMrS5AY-12" edge="1">
          <mxGeometry relative="1" as="geometry">
            <mxPoint x="400" y="-50" as="targetPoint" />
            <Array as="points">
              <mxPoint x="400" y="-75" />
              <mxPoint x="400" y="-40" />
              <mxPoint x="439" y="-40" />
            </Array>
          </mxGeometry>
        </mxCell>
        <mxCell id="Yi0r99OjTZonBeMrS5AY-7" value="T2" style="ellipse;whiteSpace=wrap;html=1;" parent="1" vertex="1">
          <mxGeometry x="413" y="-90" width="54" height="30" as="geometry" />
        </mxCell>
        <mxCell id="Yi0r99OjTZonBeMrS5AY-11" value="T1" style="ellipse;whiteSpace=wrap;html=1;" parent="1" vertex="1">
          <mxGeometry x="333.5" y="-30" width="54" height="30" as="geometry" />
        </mxCell>
        <mxCell id="Yi0r99OjTZonBeMrS5AY-12" value="T2" style="ellipse;whiteSpace=wrap;html=1;" parent="1" vertex="1">
          <mxGeometry x="412.5" y="-30" width="54" height="30" as="geometry" />
        </mxCell>
        <mxCell id="Yi0r99OjTZonBeMrS5AY-25" style="edgeStyle=orthogonalEdgeStyle;rounded=0;orthogonalLoop=1;jettySize=auto;html=1;exitX=1;exitY=0.5;exitDx=0;exitDy=0;curved=1;endArrow=none;startFill=0;entryX=0.5;entryY=0;entryDx=0;entryDy=0;" parent="1" source="Yi0r99OjTZonBeMrS5AY-6" edge="1">
          <mxGeometry relative="1" as="geometry">
            <mxPoint x="359.99704225352093" y="-30" as="targetPoint" />
            <mxPoint x="386.99704225352093" y="-75" as="sourcePoint" />
            <Array as="points">
              <mxPoint x="400" y="-75" />
              <mxPoint x="400" y="-40" />
              <mxPoint x="360" y="-40" />
            </Array>
          </mxGeometry>
        </mxCell>
        <mxCell id="Yi0r99OjTZonBeMrS5AY-27" style="edgeStyle=orthogonalEdgeStyle;rounded=0;orthogonalLoop=1;jettySize=auto;html=1;exitX=0;exitY=0.5;exitDx=0;exitDy=0;curved=1;endArrow=none;startFill=0;entryX=0.5;entryY=0;entryDx=0;entryDy=0;" parent="1" edge="1">
          <mxGeometry relative="1" as="geometry">
            <mxPoint x="439" y="32" as="targetPoint" />
            <mxPoint x="412.5" y="-13" as="sourcePoint" />
            <Array as="points">
              <mxPoint x="399.5" y="-13" />
              <mxPoint x="399.5" y="22" />
              <mxPoint x="438.5" y="22" />
            </Array>
          </mxGeometry>
        </mxCell>
        <mxCell id="Yi0r99OjTZonBeMrS5AY-38" style="edgeStyle=orthogonalEdgeStyle;rounded=1;orthogonalLoop=1;jettySize=auto;html=1;exitX=0.5;exitY=1;exitDx=0;exitDy=0;curved=0;endArrow=none;startFill=0;" parent="1" source="Yi0r99OjTZonBeMrS5AY-28" edge="1">
          <mxGeometry relative="1" as="geometry">
            <mxPoint x="400" y="80" as="targetPoint" />
            <Array as="points">
              <mxPoint x="360" y="70" />
              <mxPoint x="400" y="70" />
            </Array>
          </mxGeometry>
        </mxCell>
        <mxCell id="Yi0r99OjTZonBeMrS5AY-28" value="T1" style="ellipse;whiteSpace=wrap;html=1;" parent="1" vertex="1">
          <mxGeometry x="333" y="32" width="54" height="30" as="geometry" />
        </mxCell>
        <mxCell id="Yi0r99OjTZonBeMrS5AY-36" style="edgeStyle=orthogonalEdgeStyle;rounded=1;orthogonalLoop=1;jettySize=auto;html=1;exitX=0.5;exitY=1;exitDx=0;exitDy=0;curved=0;endArrow=none;startFill=0;" parent="1" source="Yi0r99OjTZonBeMrS5AY-29" edge="1">
          <mxGeometry relative="1" as="geometry">
            <mxPoint x="400" y="80" as="targetPoint" />
            <Array as="points">
              <mxPoint x="439" y="70" />
              <mxPoint x="400" y="70" />
            </Array>
          </mxGeometry>
        </mxCell>
        <mxCell id="Yi0r99OjTZonBeMrS5AY-29" value="T2" style="ellipse;whiteSpace=wrap;html=1;" parent="1" vertex="1">
          <mxGeometry x="412" y="32" width="54" height="30" as="geometry" />
        </mxCell>
        <mxCell id="Yi0r99OjTZonBeMrS5AY-30" style="edgeStyle=orthogonalEdgeStyle;rounded=0;orthogonalLoop=1;jettySize=auto;html=1;exitX=1;exitY=0.5;exitDx=0;exitDy=0;curved=1;endArrow=none;startFill=0;entryX=0.5;entryY=0;entryDx=0;entryDy=0;" parent="1" edge="1">
          <mxGeometry relative="1" as="geometry">
            <mxPoint x="359.49704225352093" y="32" as="targetPoint" />
            <mxPoint x="387.5" y="-13" as="sourcePoint" />
            <Array as="points">
              <mxPoint x="399.5" y="-13" />
              <mxPoint x="399.5" y="22" />
              <mxPoint x="359.5" y="22" />
            </Array>
          </mxGeometry>
        </mxCell>
        <mxCell id="Yi0r99OjTZonBeMrS5AY-41" value="T1" style="ellipse;whiteSpace=wrap;html=1;" parent="1" vertex="1">
          <mxGeometry x="333" y="103" width="54" height="30" as="geometry" />
        </mxCell>
        <mxCell id="Yi0r99OjTZonBeMrS5AY-42" value="T2" style="ellipse;whiteSpace=wrap;html=1;" parent="1" vertex="1">
          <mxGeometry x="412" y="103" width="54" height="30" as="geometry" />
        </mxCell>
        <mxCell id="Yi0r99OjTZonBeMrS5AY-43" style="edgeStyle=orthogonalEdgeStyle;rounded=0;orthogonalLoop=1;jettySize=auto;html=1;exitX=0;exitY=0.5;exitDx=0;exitDy=0;curved=1;endArrow=none;startFill=0;entryX=0.5;entryY=0;entryDx=0;entryDy=0;" parent="1" target="Yi0r99OjTZonBeMrS5AY-47" edge="1">
          <mxGeometry relative="1" as="geometry">
            <mxPoint x="399" y="145" as="targetPoint" />
            <mxPoint x="412" y="120" as="sourcePoint" />
            <Array as="points">
              <mxPoint x="399" y="120" />
              <mxPoint x="399" y="155" />
              <mxPoint x="438" y="155" />
            </Array>
          </mxGeometry>
        </mxCell>
        <mxCell id="Yi0r99OjTZonBeMrS5AY-45" value="T1" style="ellipse;whiteSpace=wrap;html=1;" parent="1" vertex="1">
          <mxGeometry x="332.5" y="165" width="54" height="30" as="geometry" />
        </mxCell>
        <mxCell id="Yi0r99OjTZonBeMrS5AY-47" value="T2" style="ellipse;whiteSpace=wrap;html=1;" parent="1" vertex="1">
          <mxGeometry x="411.5" y="165" width="54" height="30" as="geometry" />
        </mxCell>
        <mxCell id="Yi0r99OjTZonBeMrS5AY-48" style="edgeStyle=orthogonalEdgeStyle;rounded=0;orthogonalLoop=1;jettySize=auto;html=1;exitX=1;exitY=0.5;exitDx=0;exitDy=0;curved=1;endArrow=none;startFill=0;entryX=0.5;entryY=0;entryDx=0;entryDy=0;" parent="1" edge="1">
          <mxGeometry relative="1" as="geometry">
            <mxPoint x="358.99704225352093" y="165" as="targetPoint" />
            <mxPoint x="387" y="120" as="sourcePoint" />
            <Array as="points">
              <mxPoint x="399" y="120" />
              <mxPoint x="399" y="155" />
              <mxPoint x="359" y="155" />
            </Array>
          </mxGeometry>
        </mxCell>
        <mxCell id="Yi0r99OjTZonBeMrS5AY-49" value="T3" style="ellipse;whiteSpace=wrap;html=1;" parent="1" vertex="1">
          <mxGeometry x="246" y="165" width="54" height="30" as="geometry" />
        </mxCell>
        <mxCell id="Yi0r99OjTZonBeMrS5AY-51" style="edgeStyle=orthogonalEdgeStyle;rounded=0;orthogonalLoop=1;jettySize=auto;html=1;exitX=0.5;exitY=0;exitDx=0;exitDy=0;endArrow=none;startFill=0;curved=1;" parent="1" source="Yi0r99OjTZonBeMrS5AY-50" edge="1">
          <mxGeometry relative="1" as="geometry">
            <mxPoint x="400" y="80" as="targetPoint" />
            <Array as="points">
              <mxPoint x="527" y="90" />
              <mxPoint x="400" y="90" />
            </Array>
          </mxGeometry>
        </mxCell>
        <mxCell id="Yi0r99OjTZonBeMrS5AY-50" value="Combo" style="ellipse;whiteSpace=wrap;html=1;" parent="1" vertex="1">
          <mxGeometry x="500" y="165" width="54" height="30" as="geometry" />
        </mxCell>
        <mxCell id="Yi0r99OjTZonBeMrS5AY-52" style="edgeStyle=orthogonalEdgeStyle;rounded=0;orthogonalLoop=1;jettySize=auto;html=1;exitX=0.5;exitY=0;exitDx=0;exitDy=0;endArrow=none;startFill=0;curved=1;" parent="1" edge="1">
          <mxGeometry relative="1" as="geometry">
            <mxPoint x="400" y="80" as="targetPoint" />
            <mxPoint x="273.0204081632651" y="165" as="sourcePoint" />
            <Array as="points">
              <mxPoint x="273.0204081632651" y="90" />
              <mxPoint x="400.0204081632651" y="90" />
            </Array>
          </mxGeometry>
        </mxCell>
        <mxCell id="Yi0r99OjTZonBeMrS5AY-56" value="" style="endArrow=none;html=1;rounded=0;exitX=1;exitY=0;exitDx=0;exitDy=0;curved=1;" parent="1" source="Yi0r99OjTZonBeMrS5AY-41" edge="1">
          <mxGeometry width="50" height="50" relative="1" as="geometry">
            <mxPoint x="340" y="140" as="sourcePoint" />
            <mxPoint x="400" y="80" as="targetPoint" />
            <Array as="points">
              <mxPoint x="400" y="100" />
            </Array>
          </mxGeometry>
        </mxCell>
        <mxCell id="Yi0r99OjTZonBeMrS5AY-57" value="" style="endArrow=none;html=1;rounded=0;exitX=1;exitY=0;exitDx=0;exitDy=0;curved=1;" parent="1" edge="1">
          <mxGeometry width="50" height="50" relative="1" as="geometry">
            <mxPoint x="421" y="107" as="sourcePoint" />
            <mxPoint x="400" y="80" as="targetPoint" />
            <Array as="points">
              <mxPoint x="400" y="100" />
            </Array>
          </mxGeometry>
        </mxCell>
        <mxCell id="Yi0r99OjTZonBeMrS5AY-58" value="T1" style="ellipse;whiteSpace=wrap;html=1;" parent="1" vertex="1">
          <mxGeometry x="333" y="266" width="54" height="30" as="geometry" />
        </mxCell>
        <mxCell id="Yi0r99OjTZonBeMrS5AY-59" value="T2" style="ellipse;whiteSpace=wrap;html=1;" parent="1" vertex="1">
          <mxGeometry x="412" y="266" width="54" height="30" as="geometry" />
        </mxCell>
        <mxCell id="Yi0r99OjTZonBeMrS5AY-60" style="edgeStyle=orthogonalEdgeStyle;rounded=0;orthogonalLoop=1;jettySize=auto;html=1;exitX=0;exitY=0.5;exitDx=0;exitDy=0;curved=1;endArrow=none;startFill=0;entryX=0.5;entryY=0;entryDx=0;entryDy=0;" parent="1" target="Yi0r99OjTZonBeMrS5AY-64" edge="1">
          <mxGeometry relative="1" as="geometry">
            <mxPoint x="399" y="308" as="targetPoint" />
            <mxPoint x="412" y="283" as="sourcePoint" />
            <Array as="points">
              <mxPoint x="399" y="283" />
              <mxPoint x="399" y="318" />
              <mxPoint x="438" y="318" />
            </Array>
          </mxGeometry>
        </mxCell>
        <mxCell id="Yi0r99OjTZonBeMrS5AY-62" value="T1" style="ellipse;whiteSpace=wrap;html=1;" parent="1" vertex="1">
          <mxGeometry x="332.5" y="328" width="54" height="30" as="geometry" />
        </mxCell>
        <mxCell id="Yi0r99OjTZonBeMrS5AY-64" value="T2" style="ellipse;whiteSpace=wrap;html=1;" parent="1" vertex="1">
          <mxGeometry x="411.5" y="328" width="54" height="30" as="geometry" />
        </mxCell>
        <mxCell id="Yi0r99OjTZonBeMrS5AY-65" style="edgeStyle=orthogonalEdgeStyle;rounded=0;orthogonalLoop=1;jettySize=auto;html=1;exitX=1;exitY=0.5;exitDx=0;exitDy=0;curved=1;endArrow=none;startFill=0;entryX=0.5;entryY=0;entryDx=0;entryDy=0;" parent="1" edge="1">
          <mxGeometry relative="1" as="geometry">
            <mxPoint x="358.99704225352093" y="328" as="targetPoint" />
            <mxPoint x="387" y="283" as="sourcePoint" />
            <Array as="points">
              <mxPoint x="399" y="283" />
              <mxPoint x="399" y="318" />
              <mxPoint x="359" y="318" />
            </Array>
          </mxGeometry>
        </mxCell>
        <mxCell id="Yi0r99OjTZonBeMrS5AY-66" value="Combo" style="ellipse;whiteSpace=wrap;html=1;" parent="1" vertex="1">
          <mxGeometry x="246" y="328" width="54" height="30" as="geometry" />
        </mxCell>
        <mxCell id="Yi0r99OjTZonBeMrS5AY-68" value="T3" style="ellipse;whiteSpace=wrap;html=1;" parent="1" vertex="1">
          <mxGeometry x="500" y="328" width="54" height="30" as="geometry" />
        </mxCell>
        <mxCell id="Yi0r99OjTZonBeMrS5AY-70" value="" style="endArrow=none;html=1;rounded=0;exitX=1;exitY=0;exitDx=0;exitDy=0;curved=1;" parent="1" source="Yi0r99OjTZonBeMrS5AY-58" edge="1">
          <mxGeometry width="50" height="50" relative="1" as="geometry">
            <mxPoint x="340" y="303" as="sourcePoint" />
            <mxPoint x="400" y="250" as="targetPoint" />
            <Array as="points">
              <mxPoint x="400" y="263" />
            </Array>
          </mxGeometry>
        </mxCell>
        <mxCell id="Yi0r99OjTZonBeMrS5AY-71" value="" style="endArrow=none;html=1;rounded=0;exitX=1;exitY=0;exitDx=0;exitDy=0;curved=1;" parent="1" edge="1">
          <mxGeometry width="50" height="50" relative="1" as="geometry">
            <mxPoint x="421" y="270" as="sourcePoint" />
            <mxPoint x="400" y="250" as="targetPoint" />
            <Array as="points">
              <mxPoint x="400" y="263" />
            </Array>
          </mxGeometry>
        </mxCell>
        <mxCell id="Yi0r99OjTZonBeMrS5AY-74" style="edgeStyle=orthogonalEdgeStyle;rounded=0;orthogonalLoop=1;jettySize=auto;html=1;exitX=0;exitY=0.5;exitDx=0;exitDy=0;curved=1;endArrow=none;startFill=0;entryX=0.5;entryY=0;entryDx=0;entryDy=0;" parent="1" edge="1">
          <mxGeometry relative="1" as="geometry">
            <mxPoint x="437.75295774647907" y="224" as="targetPoint" />
            <mxPoint x="411.25295774647907" y="179" as="sourcePoint" />
            <Array as="points">
              <mxPoint x="398.25295774647907" y="179" />
              <mxPoint x="398.25295774647907" y="214" />
              <mxPoint x="437.25295774647907" y="214" />
            </Array>
          </mxGeometry>
        </mxCell>
        <mxCell id="Yi0r99OjTZonBeMrS5AY-75" style="edgeStyle=orthogonalEdgeStyle;rounded=0;orthogonalLoop=1;jettySize=auto;html=1;exitX=1;exitY=0.5;exitDx=0;exitDy=0;curved=1;endArrow=none;startFill=0;entryX=0.5;entryY=0;entryDx=0;entryDy=0;" parent="1" edge="1">
          <mxGeometry relative="1" as="geometry">
            <mxPoint x="358.25" y="224" as="targetPoint" />
            <mxPoint x="386.25295774647907" y="179" as="sourcePoint" />
            <Array as="points">
              <mxPoint x="398.25295774647907" y="179" />
              <mxPoint x="398.25295774647907" y="214" />
              <mxPoint x="358.25295774647907" y="214" />
            </Array>
          </mxGeometry>
        </mxCell>
        <mxCell id="Yi0r99OjTZonBeMrS5AY-78" value="" style="endArrow=none;html=1;rounded=0;entryX=0.802;entryY=0.906;entryDx=0;entryDy=0;entryPerimeter=0;curved=1;" parent="1" target="Yi0r99OjTZonBeMrS5AY-49" edge="1">
          <mxGeometry width="50" height="50" relative="1" as="geometry">
            <mxPoint x="358" y="224" as="sourcePoint" />
            <mxPoint x="290.0646284825508" y="184.62172158313547" as="targetPoint" />
            <Array as="points">
              <mxPoint x="350" y="210" />
              <mxPoint x="310" y="220" />
            </Array>
          </mxGeometry>
        </mxCell>
        <mxCell id="Yi0r99OjTZonBeMrS5AY-79" value="" style="endArrow=none;html=1;rounded=0;exitX=0.5;exitY=0;exitDx=0;exitDy=0;curved=1;" parent="1" source="Yi0r99OjTZonBeMrS5AY-66" edge="1">
          <mxGeometry width="50" height="50" relative="1" as="geometry">
            <mxPoint x="271" y="320.9999999999999" as="sourcePoint" />
            <mxPoint x="358" y="223" as="targetPoint" />
            <Array as="points">
              <mxPoint x="280" y="270" />
              <mxPoint x="360" y="240" />
            </Array>
          </mxGeometry>
        </mxCell>
        <mxCell id="Yi0r99OjTZonBeMrS5AY-80" value="" style="endArrow=none;html=1;rounded=0;curved=1;" parent="1" edge="1">
          <mxGeometry width="50" height="50" relative="1" as="geometry">
            <mxPoint x="400" y="250" as="sourcePoint" />
            <mxPoint x="358" y="224" as="targetPoint" />
            <Array as="points">
              <mxPoint x="400" y="240" />
              <mxPoint x="370" y="240" />
            </Array>
          </mxGeometry>
        </mxCell>
        <mxCell id="Yi0r99OjTZonBeMrS5AY-82" value="" style="endArrow=none;html=1;rounded=0;entryX=0.802;entryY=0.906;entryDx=0;entryDy=0;entryPerimeter=0;curved=1;" parent="1" edge="1">
          <mxGeometry width="50" height="50" relative="1" as="geometry">
            <mxPoint x="507.00000000000045" y="190" as="sourcePoint" />
            <mxPoint x="438.00000000000045" y="222" as="targetPoint" />
            <Array as="points">
              <mxPoint x="499.00000000000045" y="204" />
              <mxPoint x="459.00000000000045" y="194" />
            </Array>
          </mxGeometry>
        </mxCell>
        <mxCell id="Yi0r99OjTZonBeMrS5AY-83" value="" style="endArrow=none;html=1;rounded=0;exitX=0.49;exitY=0.007;exitDx=0;exitDy=0;curved=1;exitPerimeter=0;" parent="1" source="Yi0r99OjTZonBeMrS5AY-68" edge="1">
          <mxGeometry width="50" height="50" relative="1" as="geometry">
            <mxPoint x="522.9999999999998" y="327" as="sourcePoint" />
            <mxPoint x="437.9999999999998" y="222" as="targetPoint" />
            <Array as="points">
              <mxPoint x="515.9999999999998" y="269" />
              <mxPoint x="435.9999999999998" y="239" />
            </Array>
          </mxGeometry>
        </mxCell>
        <mxCell id="Yi0r99OjTZonBeMrS5AY-84" value="" style="endArrow=none;html=1;rounded=0;curved=1;" parent="1" edge="1">
          <mxGeometry width="50" height="50" relative="1" as="geometry">
            <mxPoint x="400" y="250" as="sourcePoint" />
            <mxPoint x="437.9999999999998" y="223.00000000000023" as="targetPoint" />
            <Array as="points">
              <mxPoint x="400" y="239" />
              <mxPoint x="425.9999999999998" y="239.00000000000023" />
            </Array>
          </mxGeometry>
        </mxCell>
        <mxCell id="Yi0r99OjTZonBeMrS5AY-121" style="edgeStyle=orthogonalEdgeStyle;rounded=0;orthogonalLoop=1;jettySize=auto;html=1;curved=1;endArrow=none;startFill=0;entryX=0.5;entryY=0;entryDx=0;entryDy=0;" parent="1" edge="1">
          <mxGeometry relative="1" as="geometry">
            <mxPoint x="484" y="435.02" as="targetPoint" />
            <mxPoint x="445" y="410" as="sourcePoint" />
            <Array as="points">
              <mxPoint x="444.5" y="390.02" />
              <mxPoint x="444.5" y="425.02" />
              <mxPoint x="483.5" y="425.02" />
            </Array>
          </mxGeometry>
        </mxCell>
        <mxCell id="Yi0r99OjTZonBeMrS5AY-122" style="edgeStyle=orthogonalEdgeStyle;rounded=1;orthogonalLoop=1;jettySize=auto;html=1;exitX=0.5;exitY=1;exitDx=0;exitDy=0;curved=0;endArrow=none;startFill=0;" parent="1" source="Yi0r99OjTZonBeMrS5AY-123" edge="1">
          <mxGeometry relative="1" as="geometry">
            <mxPoint x="445" y="483.02" as="targetPoint" />
            <Array as="points">
              <mxPoint x="405" y="473.02" />
              <mxPoint x="445" y="473.02" />
            </Array>
          </mxGeometry>
        </mxCell>
        <mxCell id="Yi0r99OjTZonBeMrS5AY-123" value="T1" style="ellipse;whiteSpace=wrap;html=1;" parent="1" vertex="1">
          <mxGeometry x="378" y="435.02" width="54" height="30" as="geometry" />
        </mxCell>
        <mxCell id="Yi0r99OjTZonBeMrS5AY-124" style="edgeStyle=orthogonalEdgeStyle;rounded=1;orthogonalLoop=1;jettySize=auto;html=1;exitX=0.5;exitY=1;exitDx=0;exitDy=0;curved=0;endArrow=none;startFill=0;" parent="1" source="Yi0r99OjTZonBeMrS5AY-125" edge="1">
          <mxGeometry relative="1" as="geometry">
            <mxPoint x="445" y="483.02" as="targetPoint" />
            <Array as="points">
              <mxPoint x="484" y="473.02" />
              <mxPoint x="445" y="473.02" />
            </Array>
          </mxGeometry>
        </mxCell>
        <mxCell id="Yi0r99OjTZonBeMrS5AY-125" value="T2" style="ellipse;whiteSpace=wrap;html=1;" parent="1" vertex="1">
          <mxGeometry x="457" y="435.02" width="54" height="30" as="geometry" />
        </mxCell>
        <mxCell id="Yi0r99OjTZonBeMrS5AY-126" style="edgeStyle=orthogonalEdgeStyle;rounded=0;orthogonalLoop=1;jettySize=auto;html=1;curved=1;endArrow=none;startFill=0;entryX=0.5;entryY=0;entryDx=0;entryDy=0;" parent="1" edge="1">
          <mxGeometry relative="1" as="geometry">
            <mxPoint x="404.49704225352093" y="435.02" as="targetPoint" />
            <mxPoint x="445" y="410" as="sourcePoint" />
            <Array as="points">
              <mxPoint x="444.5" y="390.02" />
              <mxPoint x="444.5" y="425.02" />
              <mxPoint x="404.5" y="425.02" />
            </Array>
          </mxGeometry>
        </mxCell>
        <mxCell id="Yi0r99OjTZonBeMrS5AY-127" value="T1" style="ellipse;whiteSpace=wrap;html=1;" parent="1" vertex="1">
          <mxGeometry x="378" y="506.02" width="54" height="30" as="geometry" />
        </mxCell>
        <mxCell id="Yi0r99OjTZonBeMrS5AY-128" value="T2" style="ellipse;whiteSpace=wrap;html=1;" parent="1" vertex="1">
          <mxGeometry x="457" y="506.02" width="54" height="30" as="geometry" />
        </mxCell>
        <mxCell id="Yi0r99OjTZonBeMrS5AY-129" style="edgeStyle=orthogonalEdgeStyle;rounded=0;orthogonalLoop=1;jettySize=auto;html=1;exitX=0;exitY=0.5;exitDx=0;exitDy=0;curved=1;endArrow=none;startFill=0;entryX=0.5;entryY=0;entryDx=0;entryDy=0;" parent="1" target="Yi0r99OjTZonBeMrS5AY-131" edge="1">
          <mxGeometry relative="1" as="geometry">
            <mxPoint x="444" y="548.02" as="targetPoint" />
            <mxPoint x="457" y="523.02" as="sourcePoint" />
            <Array as="points">
              <mxPoint x="444" y="523.02" />
              <mxPoint x="444" y="558.02" />
              <mxPoint x="483" y="558.02" />
            </Array>
          </mxGeometry>
        </mxCell>
        <mxCell id="Yi0r99OjTZonBeMrS5AY-130" value="T1" style="ellipse;whiteSpace=wrap;html=1;" parent="1" vertex="1">
          <mxGeometry x="377.5" y="568.02" width="54" height="30" as="geometry" />
        </mxCell>
        <mxCell id="Yi0r99OjTZonBeMrS5AY-131" value="T2" style="ellipse;whiteSpace=wrap;html=1;" parent="1" vertex="1">
          <mxGeometry x="456.5" y="568.02" width="54" height="30" as="geometry" />
        </mxCell>
        <mxCell id="Yi0r99OjTZonBeMrS5AY-132" style="edgeStyle=orthogonalEdgeStyle;rounded=0;orthogonalLoop=1;jettySize=auto;html=1;exitX=1;exitY=0.5;exitDx=0;exitDy=0;curved=1;endArrow=none;startFill=0;entryX=0.5;entryY=0;entryDx=0;entryDy=0;" parent="1" edge="1">
          <mxGeometry relative="1" as="geometry">
            <mxPoint x="403.99704225352093" y="568.02" as="targetPoint" />
            <mxPoint x="432" y="523.02" as="sourcePoint" />
            <Array as="points">
              <mxPoint x="444" y="523.02" />
              <mxPoint x="444" y="558.02" />
              <mxPoint x="404" y="558.02" />
            </Array>
          </mxGeometry>
        </mxCell>
        <mxCell id="Yi0r99OjTZonBeMrS5AY-133" value="T3" style="ellipse;whiteSpace=wrap;html=1;" parent="1" vertex="1">
          <mxGeometry x="291" y="568.02" width="54" height="30" as="geometry" />
        </mxCell>
        <mxCell id="Yi0r99OjTZonBeMrS5AY-134" style="edgeStyle=orthogonalEdgeStyle;rounded=0;orthogonalLoop=1;jettySize=auto;html=1;exitX=0.5;exitY=0;exitDx=0;exitDy=0;endArrow=none;startFill=0;curved=1;" parent="1" source="Yi0r99OjTZonBeMrS5AY-135" edge="1">
          <mxGeometry relative="1" as="geometry">
            <mxPoint x="445" y="483.02" as="targetPoint" />
            <Array as="points">
              <mxPoint x="572" y="493.02" />
              <mxPoint x="445" y="493.02" />
            </Array>
          </mxGeometry>
        </mxCell>
        <mxCell id="Yi0r99OjTZonBeMrS5AY-135" value="Combo" style="ellipse;whiteSpace=wrap;html=1;" parent="1" vertex="1">
          <mxGeometry x="545" y="568.02" width="54" height="30" as="geometry" />
        </mxCell>
        <mxCell id="Yi0r99OjTZonBeMrS5AY-136" style="edgeStyle=orthogonalEdgeStyle;rounded=0;orthogonalLoop=1;jettySize=auto;html=1;exitX=0.5;exitY=0;exitDx=0;exitDy=0;endArrow=none;startFill=0;curved=1;" parent="1" edge="1">
          <mxGeometry relative="1" as="geometry">
            <mxPoint x="445" y="483.02" as="targetPoint" />
            <mxPoint x="318.0204081632651" y="568.02" as="sourcePoint" />
            <Array as="points">
              <mxPoint x="318.0204081632651" y="493.02" />
              <mxPoint x="445.0204081632651" y="493.02" />
            </Array>
          </mxGeometry>
        </mxCell>
        <mxCell id="Yi0r99OjTZonBeMrS5AY-137" value="" style="endArrow=none;html=1;rounded=0;exitX=1;exitY=0;exitDx=0;exitDy=0;curved=1;" parent="1" source="Yi0r99OjTZonBeMrS5AY-127" edge="1">
          <mxGeometry width="50" height="50" relative="1" as="geometry">
            <mxPoint x="385" y="543.02" as="sourcePoint" />
            <mxPoint x="445" y="483.02" as="targetPoint" />
            <Array as="points">
              <mxPoint x="445" y="503.02" />
            </Array>
          </mxGeometry>
        </mxCell>
        <mxCell id="Yi0r99OjTZonBeMrS5AY-138" value="" style="endArrow=none;html=1;rounded=0;exitX=1;exitY=0;exitDx=0;exitDy=0;curved=1;" parent="1" edge="1">
          <mxGeometry width="50" height="50" relative="1" as="geometry">
            <mxPoint x="466" y="510.02" as="sourcePoint" />
            <mxPoint x="445" y="483.02" as="targetPoint" />
            <Array as="points">
              <mxPoint x="445" y="503.02" />
            </Array>
          </mxGeometry>
        </mxCell>
        <mxCell id="Yi0r99OjTZonBeMrS5AY-139" value="T4" style="ellipse;whiteSpace=wrap;html=1;" parent="1" vertex="1">
          <mxGeometry x="201" y="568.02" width="54" height="30" as="geometry" />
        </mxCell>
        <mxCell id="Yi0r99OjTZonBeMrS5AY-140" value="" style="endArrow=none;html=1;rounded=0;exitX=0.5;exitY=0;exitDx=0;exitDy=0;curved=1;" parent="1" source="Yi0r99OjTZonBeMrS5AY-139" edge="1">
          <mxGeometry width="50" height="50" relative="1" as="geometry">
            <mxPoint x="415" y="479" as="sourcePoint" />
            <mxPoint x="445" y="399" as="targetPoint" />
            <Array as="points">
              <mxPoint x="260" y="420" />
              <mxPoint x="400" y="430" />
            </Array>
          </mxGeometry>
        </mxCell>
        <mxCell id="Yi0r99OjTZonBeMrS5AY-141" value="" style="endArrow=none;html=1;rounded=0;entryX=1;entryY=1;entryDx=0;entryDy=0;curved=1;" parent="1" target="Yi0r99OjTZonBeMrS5AY-66" edge="1">
          <mxGeometry width="50" height="50" relative="1" as="geometry">
            <mxPoint x="445" y="399" as="sourcePoint" />
            <mxPoint x="278" y="357" as="targetPoint" />
            <Array as="points">
              <mxPoint x="390" y="380" />
              <mxPoint x="300" y="380" />
            </Array>
          </mxGeometry>
        </mxCell>
        <mxCell id="Yi0r99OjTZonBeMrS5AY-142" value="" style="endArrow=none;html=1;rounded=0;entryX=1;entryY=1;entryDx=0;entryDy=0;curved=1;" parent="1" target="Yi0r99OjTZonBeMrS5AY-62" edge="1">
          <mxGeometry width="50" height="50" relative="1" as="geometry">
            <mxPoint x="445" y="400" as="sourcePoint" />
            <mxPoint x="383.5918830920368" y="353.6066017177982" as="targetPoint" />
            <Array as="points">
              <mxPoint x="430" y="380" />
              <mxPoint x="380" y="370" />
            </Array>
          </mxGeometry>
        </mxCell>
        <mxCell id="Yi0r99OjTZonBeMrS5AY-143" value="" style="endArrow=none;html=1;rounded=0;exitX=1;exitY=1;exitDx=0;exitDy=0;curved=1;" parent="1" source="Yi0r99OjTZonBeMrS5AY-64" edge="1">
          <mxGeometry width="50" height="50" relative="1" as="geometry">
            <mxPoint x="541" y="435" as="sourcePoint" />
            <mxPoint x="445" y="399" as="targetPoint" />
            <Array as="points">
              <mxPoint x="460" y="370" />
              <mxPoint x="445" y="380" />
            </Array>
          </mxGeometry>
        </mxCell>
        <mxCell id="Yi0r99OjTZonBeMrS5AY-144" value="" style="endArrow=none;html=1;rounded=0;exitX=0;exitY=1;exitDx=0;exitDy=0;curved=1;" parent="1" source="Yi0r99OjTZonBeMrS5AY-68" edge="1">
          <mxGeometry width="50" height="50" relative="1" as="geometry">
            <mxPoint x="530" y="425" as="sourcePoint" />
            <mxPoint x="444" y="399" as="targetPoint" />
            <Array as="points">
              <mxPoint x="500" y="370" />
              <mxPoint x="480" y="380" />
              <mxPoint x="460" y="380" />
            </Array>
          </mxGeometry>
        </mxCell>
        <mxCell id="kYoVjg8iBJf-C2koayhb-3" style="edgeStyle=orthogonalEdgeStyle;rounded=0;orthogonalLoop=1;jettySize=auto;html=1;exitX=0.5;exitY=1;exitDx=0;exitDy=0;entryX=0.5;entryY=0;entryDx=0;entryDy=0;endArrow=none;startFill=0;" edge="1" parent="1" source="kYoVjg8iBJf-C2koayhb-1" target="Yi0r99OjTZonBeMrS5AY-1">
          <mxGeometry relative="1" as="geometry" />
        </mxCell>
        <mxCell id="kYoVjg8iBJf-C2koayhb-1" value="Base" style="ellipse;whiteSpace=wrap;html=1;" vertex="1" parent="1">
          <mxGeometry x="373" y="-200" width="54" height="30" as="geometry" />
        </mxCell>
        <mxCell id="kYoVjg8iBJf-C2koayhb-4" value="" style="ellipse;whiteSpace=wrap;html=1;aspect=fixed;" vertex="1" parent="1">
          <mxGeometry x="269" y="104.5" width="27" height="27" as="geometry" />
        </mxCell>
        <mxCell id="kYoVjg8iBJf-C2koayhb-6" value="" style="ellipse;whiteSpace=wrap;html=1;aspect=fixed;" vertex="1" parent="1">
          <mxGeometry x="503" y="104.5" width="27" height="27" as="geometry" />
        </mxCell>
        <mxCell id="kYoVjg8iBJf-C2koayhb-7" value="" style="ellipse;whiteSpace=wrap;html=1;aspect=fixed;" vertex="1" parent="1">
          <mxGeometry x="273" y="267.5" width="27" height="27" as="geometry" />
        </mxCell>
        <mxCell id="kYoVjg8iBJf-C2koayhb-8" value="" style="ellipse;whiteSpace=wrap;html=1;aspect=fixed;" vertex="1" parent="1">
          <mxGeometry x="496" y="267.5" width="27" height="27" as="geometry" />
        </mxCell>
        <mxCell id="kYoVjg8iBJf-C2koayhb-10" value="" style="ellipse;whiteSpace=wrap;html=1;aspect=fixed;" vertex="1" parent="1">
          <mxGeometry x="547" y="507.52" width="27" height="27" as="geometry" />
        </mxCell>
        <mxCell id="kYoVjg8iBJf-C2koayhb-11" value="" style="ellipse;whiteSpace=wrap;html=1;aspect=fixed;" vertex="1" parent="1">
          <mxGeometry x="313" y="507.52" width="27" height="27" as="geometry" />
        </mxCell>
        <mxCell id="kYoVjg8iBJf-C2koayhb-12" value="" style="ellipse;whiteSpace=wrap;html=1;aspect=fixed;" vertex="1" parent="1">
          <mxGeometry x="262" y="436.52" width="27" height="27" as="geometry" />
        </mxCell>
        <mxCell id="kYoVjg8iBJf-C2koayhb-13" value="" style="ellipse;whiteSpace=wrap;html=1;aspect=fixed;" vertex="1" parent="1">
          <mxGeometry x="226" y="507.52" width="27" height="27" as="geometry" />
        </mxCell>
      </root>
    </mxGraphModel>
  </diagram>
</mxfile>
